<svg width="21" height="21" viewBox="0 0 21 21" fill="none" xmlns="http://www.w3.org/2000/svg">
<g clip-path="url(#clip0_4543_1773)">
<path d="M16.6036 3.88574C16.3225 3.88574 16.0938 4.11449 16.0938 4.39557C16.0938 4.67665 16.3225 4.90539 16.6036 4.90539C16.8847 4.90539 17.1134 4.67669 17.1134 4.39557C17.1134 4.11445 16.8847 3.88574 16.6036 3.88574Z" fill="#666666"/>
<path d="M10.5002 5.98047C8.00804 5.98047 5.98047 8.00804 5.98047 10.5002C5.98047 12.9924 8.00804 15.02 10.5002 15.02C12.9925 15.02 15.02 12.9925 15.02 10.5003C15.02 8.00808 12.9925 5.98047 10.5002 5.98047Z" fill="#666666"/>
<path d="M15.2432 0H5.75683C2.58251 0 0 2.58251 0 5.75687V15.2432C0 18.4175 2.58251 21 5.75683 21H15.2432C18.4175 21 21 18.4175 21 15.2432V5.75687C21 2.58251 18.4175 0 15.2432 0ZM10.5 16.2599C7.32396 16.2599 4.74013 13.676 4.74013 10.5C4.74013 7.32396 7.324 4.74018 10.5 4.74018C13.676 4.74018 16.2599 7.324 16.2599 10.5C16.2599 13.676 13.676 16.2599 10.5 16.2599ZM16.6044 6.14562C15.6395 6.14562 14.8544 5.36058 14.8544 4.39564C14.8544 3.43071 15.6395 2.64563 16.6044 2.64563C17.5693 2.64563 18.3544 3.43067 18.3544 4.3956C18.3544 5.36054 17.5693 6.14562 16.6044 6.14562Z" fill="#666666"/>
</g>
<defs>
<clipPath id="clip0_4543_1773">
<rect width="21" height="21" fill="white"/>
</clipPath>
</defs>
</svg>
