<svg width="189" height="65" viewBox="0 0 189 65" fill="none" xmlns="http://www.w3.org/2000/svg">
<g clip-path="url(#clip0_4504_918)">
<path d="M51.6551 1.07764H61.7821C61.9663 1.07711 62.1453 1.13945 62.2895 1.25443C62.4337 1.3694 62.5347 1.53017 62.5757 1.71032L72.6243 45.9074L73.3274 49.4886H74.5887C74.8379 49.4878 75.0766 49.3879 75.2525 49.2109C75.4284 49.0339 75.5272 48.7941 75.5272 48.5441V3.04532C75.528 2.52318 75.7353 2.0227 76.1036 1.65378C76.472 1.28485 76.9712 1.07764 77.4916 1.07764H87.8691C88.1269 1.07724 88.3823 1.12784 88.6206 1.22655C88.8589 1.32526 89.0755 1.47013 89.258 1.65289C89.4404 1.83564 89.5852 2.05269 89.6839 2.29162C89.7827 2.53055 89.8335 2.78666 89.8335 3.04532V61.891C89.8339 62.1499 89.7834 62.4064 89.6848 62.6456C89.5862 62.8849 89.4415 63.1023 89.259 63.2854C89.0766 63.4685 88.8598 63.6136 88.6213 63.7125C88.3828 63.8114 88.1272 63.8621 87.8691 63.8617H63.5203C63.3375 63.8614 63.1602 63.7994 63.0168 63.6857C62.8734 63.5721 62.7723 63.4134 62.7296 63.2351L48.7432 4.78293C48.6373 4.3413 48.6326 3.88133 48.7296 3.43764C48.8265 2.99395 49.0225 2.5781 49.3029 2.2214C49.5832 1.8647 49.9405 1.57645 50.348 1.37833C50.7554 1.18022 51.2024 1.07741 51.6551 1.07764Z" fill="black"/>
<path d="M105.424 1.07471H95.0465C93.9615 1.07471 93.082 1.95702 93.082 3.04541V61.8881C93.082 62.9765 93.9615 63.8588 95.0465 63.8588H105.424C106.509 63.8588 107.388 62.9765 107.388 61.8881V3.04541C107.388 1.95702 106.509 1.07471 105.424 1.07471Z" fill="black"/>
<path d="M178.014 1.07471H167.636C166.551 1.07471 165.672 1.95702 165.672 3.04541V61.8881C165.672 62.9765 166.551 63.8588 167.636 63.8588H178.014C179.099 63.8588 179.978 62.9765 179.978 61.8881V3.04541C179.978 1.95702 179.099 1.07471 178.014 1.07471Z" fill="black"/>
<path d="M17.4446 0.0634766C11.9094 0.0692947 6.42386 1.1124 1.27042 3.13911C0.898261 3.28056 0.577608 3.5319 0.350796 3.85996C0.123984 4.18802 0.00167723 4.57738 2.34071e-05 4.97662V15.705C-0.00157216 16.0329 0.0784281 16.3561 0.232774 16.6451C0.38712 16.9342 0.610932 17.1801 0.883926 17.3604C1.15692 17.5408 1.47047 17.65 1.79615 17.6781C2.12183 17.7062 2.44936 17.6523 2.74904 17.5213C7.45646 15.4719 11.6539 13.8887 16.989 13.8887C26.9923 13.8887 33.8331 19.4769 35.7493 27.6594C35.829 27.9853 35.8246 28.3262 35.7364 28.6498C35.6483 28.9735 35.4794 29.2693 35.2456 29.5093C35.0118 29.7493 34.7209 29.9255 34.4004 30.0213C34.0799 30.1171 33.7403 30.1294 33.4137 30.057L2.39296 23.0732C2.10576 23.0088 1.8078 23.01 1.52111 23.0766C1.23441 23.1432 0.966298 23.2736 0.736581 23.4582C0.506864 23.6427 0.321411 23.8767 0.193923 24.1427C0.0664351 24.4088 0.000170014 24.7003 2.34071e-05 24.9955V60.3138C0.000325226 60.7344 0.134571 61.144 0.383184 61.4827C0.631797 61.8214 0.981773 62.0716 1.38207 62.1967C6.06234 63.6558 11.8289 64.9999 17.8912 64.9999C37.1132 64.9999 50.973 51.3775 50.973 32.5332C50.973 13.6889 37.1162 0.0634766 17.4446 0.0634766ZM17.7132 51.1898C16.5412 51.1908 15.3706 51.1099 14.2098 50.9476C13.7419 50.8799 13.3141 50.6452 13.0048 50.2865C12.6955 49.9279 12.5255 49.4693 12.526 48.9951V40.08L32.442 44.5542C29.2313 48.6621 24.1407 51.1898 17.7132 51.1898Z" fill="black"/>
<path d="M160.023 23.037L134.169 28.8431C133.785 28.9294 133.422 29.0906 133.101 29.3176C132.779 29.5445 132.505 29.8328 132.295 30.1659C132.085 30.499 131.942 30.8704 131.874 31.259C131.807 31.6475 131.816 32.0456 131.902 32.4304L133.713 40.6038C133.8 40.9888 133.962 41.3527 134.189 41.6749C134.416 41.9971 134.705 42.2712 135.038 42.4815C135.371 42.6918 135.742 42.8342 136.129 42.9006C136.517 42.9669 136.914 42.9559 137.298 42.8682L149.082 40.2224V48.9316C149.083 49.406 148.913 49.8649 148.604 50.2237C148.294 50.5825 147.866 50.817 147.398 50.8842C146.238 51.0465 145.068 51.1274 143.897 51.1263C132.452 51.1263 125.3 43.1436 125.3 32.4697C125.3 21.705 132.72 13.8131 144.613 13.8131C149.948 13.8131 154.145 15.3963 158.852 17.4457C159.152 17.5769 159.479 17.6309 159.805 17.6028C160.131 17.5748 160.444 17.4655 160.717 17.2851C160.99 17.1046 161.213 16.8587 161.367 16.5695C161.521 16.2804 161.601 15.9572 161.598 15.6294V4.91314C161.598 4.515 161.477 4.12639 161.252 3.79804C161.028 3.4697 160.71 3.21689 160.34 3.07261C155.187 1.0488 149.703 0.00679053 144.169 0C124.497 0 110.641 13.6224 110.641 32.4697C110.641 51.3171 124.497 64.9364 143.722 64.9364C150.59 64.9364 157.087 63.2109 162.045 61.5429C162.154 61.5027 162.247 61.4295 162.313 61.3335C162.378 61.2375 162.412 61.1234 162.41 61.0071V24.9562C162.411 24.6615 162.345 24.3705 162.218 24.1048C162.091 23.839 161.906 23.6053 161.677 23.421C161.447 23.2367 161.18 23.1065 160.894 23.04C160.607 22.9735 160.31 22.9725 160.023 23.037Z" fill="black"/>
<path d="M186.364 1.07488C186.017 1.07124 185.672 1.13719 185.351 1.26886C185.029 1.40053 184.737 1.59528 184.491 1.84169C184.245 2.0881 184.051 2.38122 183.92 2.70387C183.789 3.02651 183.723 3.3722 183.727 3.72066C183.727 4.42236 184.005 5.09532 184.499 5.5915C184.994 6.08768 185.665 6.36643 186.364 6.36643C187.064 6.36643 187.734 6.08768 188.229 5.5915C188.724 5.09532 189.001 4.42236 189.001 3.72066C189.005 3.37208 188.94 3.02621 188.809 2.70338C188.678 2.38055 188.484 2.08726 188.238 1.84077C187.992 1.59427 187.7 1.39954 187.378 1.26801C187.056 1.13649 186.712 1.07083 186.364 1.07488ZM186.364 5.68531C186.107 5.6932 185.85 5.64744 185.612 5.55094C185.373 5.45444 185.156 5.30928 184.976 5.12464C184.796 4.94 184.656 4.7199 184.565 4.47824C184.474 4.23658 184.434 3.97862 184.448 3.72066C184.448 3.21084 184.65 2.7219 185.009 2.3614C185.368 2.00091 185.856 1.79838 186.364 1.79838C186.872 1.79838 187.36 2.00091 187.719 2.3614C188.078 2.7219 188.28 3.21084 188.28 3.72066C188.294 3.97873 188.254 4.23689 188.164 4.47876C188.073 4.72063 187.933 4.94092 187.753 5.12565C187.573 5.31039 187.356 5.45553 187.117 5.55188C186.878 5.64822 186.622 5.69366 186.364 5.68531Z" fill="black"/>
<path d="M187.531 3.23335C187.531 2.67332 187.115 2.3252 186.517 2.3252H185.328V5.08297H186.007V4.08702H186.309L186.825 5.07389H187.628L186.958 4.02648C187.128 3.97827 187.278 3.87375 187.382 3.72983C187.486 3.58591 187.538 3.41099 187.531 3.23335ZM186.393 3.58754H186.007V2.87615H186.393C186.677 2.87615 186.831 2.98815 186.831 3.23335C186.831 3.47856 186.677 3.58754 186.393 3.58754Z" fill="black"/>
</g>
<defs>
<clipPath id="clip0_4504_918">
<rect width="189" height="65" fill="white"/>
</clipPath>
</defs>
</svg>
