<svg width="100" height="36" viewBox="0 0 100 36" fill="none" xmlns="http://www.w3.org/2000/svg">
<g clip-path="url(#clip0_4504_897)">
<path d="M17.0389 2.52276C17.7372 2.52276 18.3005 1.95954 18.3005 1.26138C18.3005 0.56322 17.7372 0 17.0389 0C16.3407 0 15.7773 0.56322 15.7773 1.26138C15.7773 1.95954 16.3407 2.52276 17.0389 2.52276Z" fill="#33AD43"/>
<path d="M44.1432 21.6546H41.0156L45.2463 0L52.2467 15.6411L59.3175 0L63.1198 21.6546H59.9923L57.9444 9.52194L52.0941 21.8541L46.285 9.49847L44.1491 21.6546H44.1432Z" fill="white"/>
<path d="M64.7461 0.205341H68.079L73.3894 13.6874L78.8172 0L84.0631 13.6874L89.5554 0.222941H92.8883L83.8812 21.6488L78.6353 7.38053L73.3249 21.6488L64.7461 0.205341Z" fill="white"/>
<path d="M96.9141 0H100.001V21.6546H96.9141V0Z" fill="white"/>
<path fill-rule="evenodd" clip-rule="evenodd" d="M43.5403 33.8285C44.2855 33.8285 44.7784 33.4882 44.9369 33.2183V33.7581H45.6586V27.4336H44.9369V29.5926C44.667 29.3227 44.2386 29.1409 43.5873 29.1409C42.3491 29.1409 41.3164 30.1089 41.3164 31.5052C41.3164 32.9015 42.2377 33.8226 43.5462 33.8226L43.5403 33.8285ZM44.9369 30.455V32.2796C44.755 32.6375 44.309 33.1362 43.6283 33.1362C42.7306 33.1362 42.0734 32.526 42.0734 31.4935C42.0734 30.4609 42.8186 29.8273 43.6694 29.8273C44.2562 29.8273 44.6611 30.0502 44.931 30.455H44.9369Z" fill="white"/>
<path fill-rule="evenodd" clip-rule="evenodd" d="M47.8568 27.774C47.8568 27.5276 47.6514 27.3457 47.405 27.3457C47.1351 27.3457 46.9297 27.5276 46.9297 27.774C46.9297 28.0439 47.1351 28.2257 47.405 28.2257C47.6514 28.2257 47.8568 28.0439 47.8568 27.774ZM47.7453 29.2348H47.0236V33.7582H47.7453V29.2348Z" fill="white"/>
<path fill-rule="evenodd" clip-rule="evenodd" d="M51.1909 35.5649C52.341 35.5649 53.2153 34.9371 53.2153 33.4059V29.2169H52.4701V29.6217C52.2647 29.3753 51.7952 29.1289 51.1204 29.1289C49.8823 29.1289 48.8672 30.0089 48.8672 31.4698C48.8672 32.9306 49.765 33.8107 51.1204 33.8107C51.8833 33.8107 52.2001 33.5877 52.4935 33.2475V33.5173C52.4935 34.3504 52.0417 34.8432 51.1674 34.8432C50.4456 34.8432 50.0173 34.503 49.8413 34.1686L49.1899 34.4619C49.4364 35.1366 50.2051 35.5649 51.1909 35.5649ZM52.4994 30.4783V32.3029C52.341 32.7312 51.8891 33.1594 51.2378 33.136C50.2696 33.136 49.6417 32.5258 49.6417 31.4933C49.6417 30.4607 50.387 29.8271 51.2378 29.8271C51.8481 29.8271 52.294 30.1204 52.4994 30.4783Z" fill="white"/>
<path fill-rule="evenodd" clip-rule="evenodd" d="M55.4232 27.774C55.4232 27.5276 55.2178 27.3457 54.9714 27.3457C54.7015 27.3457 54.4961 27.5276 54.4961 27.774C54.4961 28.0439 54.7015 28.2257 54.9714 28.2257C55.2178 28.2257 55.4232 28.0439 55.4232 27.774ZM55.3117 29.2348H54.59V33.7582H55.3117V29.2348Z" fill="white"/>
<path d="M56.2129 29.2407H57.1576V28.0908H57.8794V29.2407H59.4344V29.9389H57.8794V31.9219C57.8794 32.8195 58.1258 33.1129 58.6657 33.1129C58.9825 33.1129 59.229 32.9779 59.4754 32.7961L59.8099 33.3358C59.54 33.6291 59.0881 33.811 58.5248 33.811C57.6447 33.811 57.1518 33.2243 57.1518 32.0979V29.9389H56.207V29.2407H56.2129Z" fill="white"/>
<path fill-rule="evenodd" clip-rule="evenodd" d="M62.3331 29.1231C61.6818 29.1231 60.96 29.3929 60.5317 29.7743L60.8896 30.314C61.318 29.9972 61.7228 29.8212 62.2392 29.8212C63.1839 29.8212 63.4539 30.361 63.4539 31.1706C63.2309 31.1061 62.7321 31.0357 62.3976 31.0357C61.095 31.0357 60.2383 31.4405 60.2383 32.432C60.2383 33.2651 60.8896 33.8048 61.8813 33.8048C62.6676 33.8048 63.1898 33.4645 63.4597 33.0832V33.7579H64.1815V30.9418C64.1815 29.7919 63.5536 29.1172 62.3331 29.1172V29.1231ZM63.4597 31.8218V32.2736C63.3013 32.6314 62.8084 33.1536 62.0397 33.1536C61.4295 33.1536 61.007 32.8837 61.007 32.4085C61.007 31.8688 61.5703 31.6869 62.4915 31.6869C62.8495 31.6869 63.2368 31.7514 63.4597 31.8218Z" fill="white"/>
<path d="M65.4844 27.416H66.2061V33.764H65.4844V27.416Z" fill="white"/>
<path fill-rule="evenodd" clip-rule="evenodd" d="M72.1495 29.1231C71.4982 29.1231 70.7764 29.3929 70.3481 29.7743L70.706 30.314C71.1344 29.9972 71.5393 29.8212 72.0556 29.8212C73.0004 29.8212 73.2703 30.361 73.2703 31.1706C73.0473 31.1061 72.5485 31.0357 72.2141 31.0357C70.9114 31.0357 70.0547 31.4405 70.0547 32.432C70.0547 33.2651 70.706 33.8048 71.6977 33.8048C72.484 33.8048 73.0004 33.4645 73.2703 33.0832V33.7579H73.992V30.9418C73.992 29.7919 73.3642 29.1172 72.1436 29.1172L72.1495 29.1231ZM73.2761 31.8218V32.2736C73.1177 32.6314 72.6248 33.1536 71.8561 33.1536C71.2517 33.1536 70.8234 32.8837 70.8234 32.4085C70.8234 31.8688 71.3867 31.6869 72.3079 31.6869C72.6659 31.6869 73.0532 31.7514 73.2761 31.8218Z" fill="white"/>
<path fill-rule="evenodd" clip-rule="evenodd" d="M77.3041 35.5649C78.4542 35.5649 79.3286 34.9371 79.3286 33.4059V29.2169H78.5833V29.6217C78.378 29.3753 77.9085 29.1289 77.2337 29.1289C75.9956 29.1289 74.9805 30.0089 74.9805 31.4698C74.9805 32.9306 75.8841 33.8107 77.2337 33.8107C77.9965 33.8107 78.3134 33.5877 78.6068 33.2475V33.5173C78.6068 34.3504 78.155 34.8432 77.2807 34.8432C76.5589 34.8432 76.1306 34.503 75.9545 34.1686L75.3032 34.4619C75.5497 35.1366 76.3183 35.5649 77.3041 35.5649ZM78.5892 30.4783V32.3029C78.4542 32.7312 78.0024 33.1594 77.3276 33.136C76.3594 33.136 75.7316 32.5258 75.7316 31.4933C75.7316 30.4607 76.4768 29.8271 77.3276 29.8271C77.9379 29.8271 78.3838 30.1204 78.5892 30.4783Z" fill="white"/>
<path fill-rule="evenodd" clip-rule="evenodd" d="M82.7554 33.8517C83.5007 33.8517 84.1285 33.5349 84.5569 32.9072L84.0816 32.4789C83.8117 32.8602 83.3188 33.1536 82.773 33.1536C81.8518 33.1536 81.177 32.6607 81.13 31.7338H84.686C84.7329 31.5284 84.7329 31.3524 84.7329 31.194C84.7329 29.9326 83.8293 29.1465 82.6381 29.1465C81.13 29.1465 80.3438 30.1791 80.3438 31.5108C80.3438 32.9306 81.3119 33.8517 82.7554 33.8517ZM83.9701 31.0826H81.1124C81.2239 30.3375 81.7638 29.7977 82.597 29.8212C83.4068 29.8212 83.9231 30.2729 83.9701 31.0826Z" fill="white"/>
<path d="M85.7461 29.2403H86.4678V29.827C86.7612 29.3753 87.3715 29.1523 88.0228 29.1523C89.1964 29.1523 89.8477 29.7625 89.8477 31.1999V33.7637H89.126V31.2879C89.126 30.2964 88.6976 29.8446 87.7998 29.8446C87.2365 29.8446 86.7202 30.2025 86.4737 30.7657V33.7578H85.752V29.2345L85.7461 29.2403Z" fill="white"/>
<path d="M95.1116 32.8192C94.7772 33.4704 93.9615 33.8341 93.2457 33.8341C91.8022 33.8341 90.8398 32.913 90.8398 31.4933C90.8398 30.1673 91.7846 29.1289 93.2046 29.1289C94.0144 29.1289 94.7361 29.4868 95.0295 30.05L94.4662 30.4314C94.1493 30.0031 93.7679 29.8212 93.2046 29.8212C92.2833 29.8212 91.5851 30.5194 91.5851 31.4874C91.5851 32.4554 92.2599 33.1536 93.2985 33.1536C93.8383 33.1536 94.2901 32.8837 94.5601 32.4554L95.1234 32.8133L95.1116 32.8192Z" fill="white"/>
<path d="M96.2631 34.8436C96.3277 34.867 96.3746 34.8905 96.4451 34.8905C96.7795 34.8905 97.0084 34.6676 97.3252 33.9459L97.4602 33.6056L95.2773 29.2642H96.1341L97.824 32.6845L99.1091 29.2642H99.8954L98.1819 33.723C97.5717 35.2542 97.1022 35.6121 96.4685 35.6121C96.2866 35.6121 96.1106 35.5652 95.9756 35.5006L96.269 34.8494L96.2631 34.8436Z" fill="white"/>
<path d="M28.0485 21.6313H32.9775L34.1042 19.7421H26.74L23.5185 28.7009L21.4707 25.0106L17.9793 31.382V4.11865H16.0898V35.3363H17.9793L21.4707 28.6715L23.63 33.1949L24.1464 31.822L24.5982 30.6545" fill="white"/>
<path d="M6.05563 17.8237H1.10316L0 19.7128H7.36416L10.5856 10.7306L12.61 14.4444L16.1014 8.07293V35.3304H18.0143V4.11865H16.1014L12.6335 10.7834L10.4741 6.26006L9.95775 7.63291H9.93428L9.50593 8.78282V8.80629" fill="white"/>
</g>
<defs>
<clipPath id="clip0_4504_897">
<rect width="100" height="35.6061" fill="white"/>
</clipPath>
</defs>
</svg>
