<svg width="21" height="21" viewBox="0 0 21 21" fill="none" xmlns="http://www.w3.org/2000/svg">
<g clip-path="url(#clip0_4504_946)">
<path d="M10.5 21C16.299 21 21 16.299 21 10.5C21 4.70101 16.299 0 10.5 0C4.70101 0 0 4.70101 0 10.5C0 16.299 4.70101 21 10.5 21Z" fill="white" fill-opacity="0.4"/>
<path fill-rule="evenodd" clip-rule="evenodd" d="M4.75291 10.3892C7.81387 9.05555 9.85499 8.17635 10.8763 7.75156C13.7922 6.53871 14.3981 6.32803 14.7931 6.32107C14.8799 6.31954 15.0741 6.34107 15.1999 6.44315C15.3062 6.52934 15.3354 6.64578 15.3494 6.7275C15.3634 6.80922 15.3808 6.99539 15.3669 7.14085C15.2089 8.80115 14.5252 12.8302 14.1773 14.6898C14.0302 15.4767 13.7403 15.7405 13.4598 15.7663C12.85 15.8224 12.387 15.3633 11.7964 14.9762C10.8723 14.3704 10.3502 13.9933 9.45316 13.4022C8.41648 12.719 9.08852 12.3436 9.67932 11.7299C9.83393 11.5693 12.5205 9.12568 12.5725 8.904C12.579 8.87628 12.5851 8.77293 12.5237 8.71836C12.4623 8.66379 12.3717 8.68246 12.3063 8.6973C12.2136 8.71833 10.7373 9.69413 7.87731 11.6247C7.45826 11.9124 7.0787 12.0526 6.73863 12.0453C6.36372 12.0372 5.64256 11.8333 5.10645 11.659C4.44888 11.4453 3.92626 11.3323 3.97177 10.9693C3.99548 10.7802 4.25585 10.5868 4.75291 10.3892Z" fill="black"/>
</g>
<defs>
<clipPath id="clip0_4504_946">
<rect width="21" height="21" fill="white"/>
</clipPath>
</defs>
</svg>
