<svg width="61" height="64" viewBox="0 0 61 64" fill="none" xmlns="http://www.w3.org/2000/svg">
<path d="M58.7398 3.45523C59.7099 3.45523 60.4674 2.69767 60.4674 1.72762C60.4674 0.757565 59.7099 0 58.7398 0C57.7698 0 57.0122 0.757565 57.0122 1.72762C57.0122 2.69767 57.7698 3.45523 58.7398 3.45523ZM58.7398 0.451852C59.4705 0.451852 59.9954 0.976772 59.9954 1.72762C59.9954 2.48518 59.4705 3.0101 58.7398 3.0101C58.0091 3.0101 57.4842 2.48518 57.4842 1.72762C57.4834 0.976772 58.0083 0.451852 58.7398 0.451852Z" fill="black"/>
<path d="M58.5073 1.96694H58.7005L59.0398 2.61197H59.5647L59.1263 1.92747C59.3656 1.84768 59.5051 1.66795 59.5051 1.40927C59.5051 1.04392 59.2329 0.811279 58.8407 0.811279H58.063V2.61197H58.5081V1.96694H58.5073ZM58.5073 1.17578H58.7601C58.9465 1.17578 59.0456 1.24885 59.0456 1.40843C59.0456 1.57472 58.9457 1.64107 58.7601 1.64107H58.5073V1.17578Z" fill="black"/>
<path d="M53.9452 31.6817C58.006 28.5204 60.4668 23.5903 60.4668 17.739C60.4668 7.46479 52.8836 0.0285645 42.1206 0.0285645C38.6864 0.0285645 35.699 0.760934 33.2709 1.70495C32.856 1.86621 32.5814 2.26346 32.5814 2.7086V8.55915C32.5814 9.33351 33.375 9.85171 34.0847 9.54432C36.6598 8.42645 38.9568 7.56306 41.8762 7.56306C48.3827 7.56306 52.4435 11.8682 52.4435 17.739C52.4435 23.5584 48.5331 27.9115 42.2752 27.9148C42.2726 27.9148 42.2693 27.9148 42.2668 27.9148C41.6117 27.9148 40.9776 27.8712 40.351 27.783C39.8219 27.7091 39.4297 27.253 39.4297 26.7189V21.9677L45.8782 23.4114C46.7618 23.6088 47.6378 23.0537 47.8351 22.1701L48.832 17.718C49.0294 16.8344 48.4743 15.9584 47.5907 15.7611L33.4456 12.5939C32.7745 12.4436 32.1362 12.9542 32.1362 13.6421V33.306C32.1362 33.3077 32.1362 33.3093 32.1362 33.311V49.7213C32.1362 50.4091 32.7737 50.9198 33.4456 50.7694L47.5916 47.6014C48.4751 47.4041 49.0303 46.5272 48.8329 45.6445L47.836 41.1924C47.6386 40.3088 46.7618 39.7537 45.8791 39.9511L39.4305 41.3948V36.6436C39.4305 36.1095 39.8227 35.6534 40.3519 35.5795C40.9784 35.4913 41.6117 35.4477 42.2668 35.4477C42.271 35.4477 42.2752 35.4477 42.2794 35.4477C48.5347 35.4527 52.4443 39.8049 52.4443 45.6235C52.4443 51.4943 48.3836 55.7994 41.8771 55.7994C38.9577 55.7994 36.6606 54.9361 34.0856 53.8182C33.3759 53.5099 32.5822 54.029 32.5822 54.8033V60.6539C32.5822 61.099 32.8568 61.4963 33.2717 61.6576C35.7006 62.6024 38.6872 63.3339 42.1215 63.3339C52.8844 63.3339 60.4676 55.8977 60.4676 45.6235C60.4676 39.773 58.0068 34.8429 53.9452 31.6817Z" fill="black"/>
<path d="M27.0212 12.5938L12.8752 15.7618C11.9917 15.9592 11.4365 16.836 11.6339 17.7187L12.6308 22.1708C12.8282 23.0544 13.705 23.6095 14.5877 23.4122L21.0363 21.9684V26.7196C21.0363 27.2538 20.6441 27.7098 20.1149 27.7837C19.4884 27.8719 18.8551 27.9156 18.2 27.9156C18.1967 27.9156 18.1942 27.9156 18.1908 27.9156C11.9337 27.9114 8.0233 23.5592 8.0233 17.7397C8.0233 11.869 12.0841 7.56379 18.5906 7.56379C21.51 7.56379 23.807 8.42718 26.3821 9.54505C27.0918 9.85328 27.8854 9.33424 27.8854 8.55988V2.70933C27.8854 2.2642 27.6108 1.86694 27.1959 1.70568C24.767 0.760825 21.7804 0.0292969 18.3462 0.0292969C7.58321 0.0292969 0 7.46553 0 17.7397C0 23.5911 2.46082 28.5211 6.52245 31.6824C2.46082 34.8437 0 39.7737 0 45.6251C0 55.8993 7.58321 63.3355 18.3462 63.3355C21.7804 63.3355 24.7678 62.6031 27.1959 61.6591C27.6108 61.4979 27.8854 61.1006 27.8854 60.6555V54.8049C27.8854 54.0306 27.0918 53.5124 26.3821 53.8197C23.807 54.9376 21.51 55.801 18.5906 55.801C12.0841 55.801 8.0233 51.4958 8.0233 45.6251C8.0233 39.8065 11.9329 35.4543 18.1891 35.4492C18.1925 35.4492 18.1967 35.4492 18.2 35.4492C18.8551 35.4492 19.4884 35.4929 20.1149 35.5811C20.6441 35.655 21.0363 36.111 21.0363 36.6452V41.3964L14.5877 39.9526C13.7042 39.7553 12.8282 40.3104 12.6308 41.194L11.6339 45.6461C11.4365 46.5297 11.9917 47.4056 12.8752 47.603L27.0212 50.771C27.6923 50.9214 28.3306 50.4107 28.3306 49.7229V33.3059V30.0572V13.6419C28.3306 12.9541 27.6931 12.4434 27.0212 12.5938Z" fill="black"/>
</svg>
