<svg width="125" height="125" viewBox="0 0 125 125" fill="none" xmlns="http://www.w3.org/2000/svg">
<path d="M82.3118 105.71C72.3713 110.809 60.9364 112.19 50.0676 109.605C39.1989 107.019 29.6111 100.636 23.0319 91.6068C16.4527 82.5774 13.3149 71.495 14.1838 60.3567C15.0527 49.2184 19.8713 38.7568 27.7712 30.8569C35.6711 22.957 46.1328 18.1384 57.271 17.2695C68.4093 16.4006 79.4917 19.5384 88.5211 26.1176C97.5506 32.6967 103.933 42.2846 106.519 53.1533C109.105 64.0221 107.724 75.457 102.624 85.3975L113.041 116.127L82.3118 105.71Z" fill="#C6D50A" stroke="#C6D50A" stroke-width="4" stroke-linecap="round" stroke-linejoin="round"/>
<path d="M84.9648 39.9471C85.7817 39.9471 86.4198 39.3091 86.4198 38.4921C86.4198 37.6751 85.7817 37.0371 84.9648 37.0371C84.1478 37.0371 83.5098 37.6751 83.5098 38.4921C83.5098 39.3091 84.1478 39.9471 84.9648 39.9471ZM84.9648 37.4177C85.5802 37.4177 86.0222 37.8597 86.0222 38.4921C86.0222 39.1301 85.5802 39.5722 84.9648 39.5722C84.3494 39.5722 83.9073 39.1301 83.9073 38.4921C83.9066 37.8597 84.3487 37.4177 84.9648 37.4177Z" fill="black"/>
<path d="M84.7687 38.6938H84.9314L85.2172 39.237H85.6593L85.29 38.6605C85.4916 38.5933 85.609 38.4419 85.609 38.2241C85.609 37.9164 85.3799 37.7205 85.0495 37.7205H84.3945V39.237H84.7694V38.6938H84.7687ZM84.7687 38.0274H84.9816C85.1387 38.0274 85.2221 38.089 85.2221 38.2234C85.2221 38.3634 85.138 38.4193 84.9816 38.4193H84.7687V38.0274Z" fill="black"/>
<path d="M80.9261 63.7193C84.3461 61.0569 86.4186 56.9048 86.4186 51.9767C86.4186 43.3238 80.0321 37.061 70.9675 37.061C68.0752 37.061 65.5591 37.6778 63.5142 38.4729C63.1648 38.6087 62.9335 38.9433 62.9335 39.3182V44.2455C62.9335 44.8977 63.6019 45.3341 64.1996 45.0752C66.3683 44.1337 68.3029 43.4066 70.7616 43.4066C76.2414 43.4066 79.6614 47.0324 79.6614 51.9767C79.6614 56.8779 76.368 60.5441 71.0976 60.5469C71.0955 60.5469 71.0927 60.5469 71.0905 60.5469C70.5388 60.5469 70.0048 60.5101 69.4771 60.4358C69.0315 60.3736 68.7011 59.9895 68.7011 59.5396V55.5382L74.1321 56.7541C74.8762 56.9204 75.614 56.4528 75.7802 55.7087L76.6198 51.9591C76.7861 51.2149 76.3185 50.4772 75.5744 50.311L63.6613 47.6436C63.0962 47.517 62.5586 47.947 62.5586 48.5263V65.0873C62.5586 65.0887 62.5586 65.0902 62.5586 65.0916V78.9123C62.5586 79.4916 63.0955 79.9217 63.6613 79.7951L75.5751 77.127C76.3192 76.9608 76.7868 76.2223 76.6205 75.4789L75.7809 71.7293C75.6147 70.9851 74.8762 70.5176 74.1328 70.6838L68.7019 71.8997V67.8983C68.7019 67.4484 69.0322 67.0643 69.4778 67.0021C70.0055 66.9278 70.5388 66.891 71.0905 66.891C71.0941 66.891 71.0976 66.891 71.1012 66.891C76.3694 66.8953 79.6621 70.5607 79.6621 75.4612C79.6621 80.4055 76.2421 84.0313 70.7623 84.0313C68.3036 84.0313 66.369 83.3042 64.2003 82.3627C63.6026 82.1031 62.9342 82.5403 62.9342 83.1924V88.1198C62.9342 88.4947 63.1655 88.8292 63.5149 88.965C65.5605 89.7608 68.0759 90.3769 70.9682 90.3769C80.0328 90.3769 86.4193 84.1141 86.4193 75.4612C86.4193 70.5339 84.3468 66.3818 80.9261 63.7193Z" fill="black"/>
<path d="M58.2514 47.6436L46.3377 50.3117C45.5936 50.4779 45.126 51.2164 45.2922 51.9598L46.1318 55.7094C46.2981 56.4535 47.0365 56.9211 47.78 56.7549L53.2109 55.5389V59.5404C53.2109 59.9902 52.8806 60.3743 52.435 60.4366C51.9073 60.5108 51.374 60.5476 50.8222 60.5476C50.8194 60.5476 50.8173 60.5476 50.8144 60.5476C45.5448 60.5441 42.2514 56.8786 42.2514 51.9775C42.2514 47.0332 45.6714 43.4073 51.1511 43.4073C53.6099 43.4073 55.5444 44.1345 57.7132 45.0759C58.3109 45.3355 58.9793 44.8984 58.9793 44.2462V39.3189C58.9793 38.944 58.748 38.6094 58.3986 38.4736C56.3529 37.6779 53.8376 37.0618 50.9453 37.0618C41.8807 37.0618 35.4941 43.3246 35.4941 51.9775C35.4941 56.9055 37.5667 61.0576 40.9874 63.7201C37.5667 66.3825 35.4941 70.5346 35.4941 75.4626C35.4941 84.1155 41.8807 90.3783 50.9453 90.3783C53.8376 90.3783 56.3536 89.7615 58.3986 88.9665C58.748 88.8307 58.9793 88.4961 58.9793 88.1212V83.1939C58.9793 82.5417 58.3109 82.1053 57.7132 82.3642C55.5444 83.3056 53.6099 84.0328 51.1511 84.0328C45.6714 84.0328 42.2514 80.4069 42.2514 75.4626C42.2514 70.5622 45.544 66.8967 50.813 66.8925C50.8159 66.8925 50.8194 66.8925 50.8222 66.8925C51.374 66.8925 51.9073 66.9293 52.435 67.0035C52.8806 67.0658 53.2109 67.4499 53.2109 67.8997V71.9012L47.78 70.6852C47.0358 70.519 46.2981 70.9866 46.1318 71.7307L45.2922 75.4803C45.126 76.2244 45.5936 76.9622 46.3377 77.1284L58.2514 79.7965C58.8166 79.9231 59.3542 79.4931 59.3542 78.9137V65.0873V62.3513V48.5264C59.3542 47.947 58.8173 47.517 58.2514 47.6436Z" fill="black"/>
</svg>
