<svg width="21" height="21" viewBox="0 0 21 21" fill="none" xmlns="http://www.w3.org/2000/svg">
<g clip-path="url(#clip0_4504_941)">
<path d="M0 10.08C0 5.32823 0 2.95236 1.47618 1.47618C2.95236 0 5.32823 0 10.08 0H10.92C15.6718 0 18.0476 0 19.5238 1.47618C21 2.95236 21 5.32823 21 10.08V10.92C21 15.6718 21 18.0476 19.5238 19.5238C18.0476 21 15.6718 21 10.92 21H10.08C5.32823 21 2.95236 21 1.47618 19.5238C0 18.0476 0 15.6718 0 10.92V10.08Z" fill="white" fill-opacity="0.4"/>
<path d="M11.1371 15.1198C6.25814 15.1198 3.47533 11.809 3.35938 6.2998H5.8033C5.88357 10.3434 7.68525 12.0562 9.11236 12.4094V6.2998H11.4137V9.78719C12.8229 9.6371 14.3034 8.04791 14.8029 6.2998H17.1041C16.7206 8.45404 15.1151 10.0432 13.9734 10.6966C15.1151 11.2263 16.9437 12.6124 17.6394 15.1198H15.1062C14.5621 13.4423 13.2065 12.1445 11.4137 11.9679V15.1198H11.1371Z" fill="black"/>
</g>
<defs>
<clipPath id="clip0_4504_941">
<rect width="21" height="21" fill="white"/>
</clipPath>
</defs>
</svg>
