<svg width="24" height="25" viewBox="0 0 24 25" fill="none" xmlns="http://www.w3.org/2000/svg">
<path d="M9.6 16.1445V8.85547L15.84 12.5L9.6 16.1445Z" fill="black"/>
<path d="M23.4937 6.65408C23.3571 6.14065 23.0897 5.67252 22.7181 5.29654C22.3466 4.92057 21.884 4.64993 21.3766 4.51173C19.5082 4 12 4 12 4C12 4 4.49183 4 2.62336 4.51173C2.11599 4.64993 1.6534 4.92057 1.28186 5.29654C0.910331 5.67252 0.642899 6.14065 0.506332 6.65408C0.157447 8.58243 -0.0118575 10.5396 0.00064491 12.5C-0.0118575 14.4604 0.157447 16.4176 0.506332 18.3459C0.642899 18.8594 0.910331 19.3275 1.28186 19.7035C1.6534 20.0794 2.11599 20.3501 2.62336 20.4883C4.49183 21 12 21 12 21C12 21 19.5082 21 21.3766 20.4883C21.884 20.3501 22.3466 20.0794 22.7181 19.7035C23.0897 19.3275 23.3571 18.8594 23.4937 18.3459C23.8426 16.4176 24.0119 14.4604 23.9994 12.5C24.0119 10.5396 23.8426 8.58243 23.4937 6.65408ZM9.60013 16.1429V8.85714L15.8312 12.5L9.60013 16.1429Z" fill="white" fill-opacity="0.4"/>
</svg>
